<svg width="85" height="85" viewBox="0 0 85 85" fill="none" xmlns="http://www.w3.org/2000/svg">
<g clip-path="url(#clip0_5709_152)">
<path d="M21.25 0H3.54167C2.60236 0 1.70152 0.373139 1.03733 1.03733C0.373139 1.70152 0 2.60236 0 3.54167L0 21.25C0 22.1893 0.373139 23.0901 1.03733 23.7543C1.70152 24.4185 2.60236 24.7917 3.54167 24.7917H21.25C22.1893 24.7917 23.0901 24.4185 23.7543 23.7543C24.4185 23.0901 24.7917 22.1893 24.7917 21.25V3.54167C24.7917 2.60236 24.4185 1.70152 23.7543 1.03733C23.0901 0.373139 22.1893 0 21.25 0ZM21.25 30.1042H3.54167C2.60236 30.1042 1.70152 30.4773 1.03733 31.1415C0.373139 31.8057 0 32.7065 0 33.6458L0 51.3542C0 52.2935 0.373139 53.1943 1.03733 53.8585C1.70152 54.5227 2.60236 54.8958 3.54167 54.8958H21.25C22.1893 54.8958 23.0901 54.5227 23.7543 53.8585C24.4185 53.1943 24.7917 52.2935 24.7917 51.3542V33.6458C24.7917 32.7065 24.4185 31.8057 23.7543 31.1415C23.0901 30.4773 22.1893 30.1042 21.25 30.1042ZM54.8958 51.3542V33.6458C54.8958 32.7065 54.5227 31.8057 53.8585 31.1415C53.1943 30.4773 52.2935 30.1042 51.3542 30.1042H33.6458C32.7065 30.1042 31.8057 30.4773 31.1415 31.1415C30.4773 31.8057 30.1042 32.7065 30.1042 33.6458V51.3542C30.1042 52.2935 30.4773 53.1943 31.1415 53.8585C31.8057 54.5227 32.7065 54.8958 33.6458 54.8958H51.3542C52.2935 54.8958 53.1943 54.5227 53.8585 53.8585C54.5227 53.1943 54.8958 52.2935 54.8958 51.3542ZM54.8958 21.25V3.54167C54.8958 2.60236 54.5227 1.70152 53.8585 1.03733C53.1943 0.373139 52.2935 0 51.3542 0L33.6458 0C32.7065 0 31.8057 0.373139 31.1415 1.03733C30.4773 1.70152 30.1042 2.60236 30.1042 3.54167V21.25C30.1042 22.1893 30.4773 23.0901 31.1415 23.7543C31.8057 24.4185 32.7065 24.7917 33.6458 24.7917H51.3542C52.2935 24.7917 53.1943 24.4185 53.8585 23.7543C54.5227 23.0901 54.8958 22.1893 54.8958 21.25ZM81.4583 0H63.75C62.8107 0 61.9099 0.373139 61.2457 1.03733C60.5815 1.70152 60.2083 2.60236 60.2083 3.54167V21.25C60.2083 22.1893 60.5815 23.0901 61.2457 23.7543C61.9099 24.4185 62.8107 24.7917 63.75 24.7917H81.4583C82.3976 24.7917 83.2985 24.4185 83.9627 23.7543C84.6269 23.0901 85 22.1893 85 21.25V3.54167C85 2.60236 84.6269 1.70152 83.9627 1.03733C83.2985 0.373139 82.3976 0 81.4583 0ZM63.75 54.8958H81.4583C82.3976 54.8958 83.2985 54.5227 83.9627 53.8585C84.6269 53.1943 85 52.2935 85 51.3542V33.6458C85 32.7065 84.6269 31.8057 83.9627 31.1415C83.2985 30.4773 82.3976 30.1042 81.4583 30.1042H63.75C62.8107 30.1042 61.9099 30.4773 61.2457 31.1415C60.5815 31.8057 60.2083 32.7065 60.2083 33.6458V51.3542C60.2083 52.2935 60.5815 53.1943 61.2457 53.8585C61.9099 54.5227 62.8107 54.8958 63.75 54.8958ZM63.75 85H81.4583C82.3976 85 83.2985 84.6269 83.9627 83.9627C84.6269 83.2985 85 82.3976 85 81.4583V63.75C85 62.8107 84.6269 61.9099 83.9627 61.2457C83.2985 60.5815 82.3976 60.2083 81.4583 60.2083H63.75C62.8107 60.2083 61.9099 60.5815 61.2457 61.2457C60.5815 61.9099 60.2083 62.8107 60.2083 63.75V81.4583C60.2083 82.3976 60.5815 83.2985 61.2457 83.9627C61.9099 84.6269 62.8107 85 63.75 85ZM0 63.75V81.4583C0 82.3976 0.373139 83.2985 1.03733 83.9627C1.70152 84.6269 2.60236 85 3.54167 85H21.25C22.1893 85 23.0901 84.6269 23.7543 83.9627C24.4185 83.2985 24.7917 82.3976 24.7917 81.4583V63.75C24.7917 62.8107 24.4185 61.9099 23.7543 61.2457C23.0901 60.5815 22.1893 60.2083 21.25 60.2083H3.54167C2.60236 60.2083 1.70152 60.5815 1.03733 61.2457C0.373139 61.9099 0 62.8107 0 63.75ZM30.1042 63.75V81.4583C30.1042 82.3976 30.4773 83.2985 31.1415 83.9627C31.8057 84.6269 32.7065 85 33.6458 85H51.3542C52.2935 85 53.1943 84.6269 53.8585 83.9627C54.5227 83.2985 54.8958 82.3976 54.8958 81.4583V63.75C54.8958 62.8107 54.5227 61.9099 53.8585 61.2457C53.1943 60.5815 52.2935 60.2083 51.3542 60.2083H33.6458C32.7065 60.2083 31.8057 60.5815 31.1415 61.2457C30.4773 61.9099 30.1042 62.8107 30.1042 63.75Z" fill="black"/>
<path d="M13.9453 13.268C13.9453 12.3217 13.4639 11.9066 12.7168 11.9066C12.0527 11.9066 11.5713 12.4213 11.5713 13.1518V17.85H8.33398V5.94669H11.5713V10.5785C12.2021 9.56583 13.165 9.01797 14.0947 9.01797C15.8877 9.01797 17.1826 10.2963 17.1826 12.5873V17.85H13.9453V13.268Z" fill="white"/>
<path d="M41.4043 14.1147C41.4043 14.9447 41.8359 15.2934 42.5332 15.2934C43.1475 15.2934 43.6123 14.8451 43.6123 14.2143V9.35001H46.833V17.85H43.6123V16.7045C42.998 17.6508 42.0518 18.182 41.1553 18.182C39.4287 18.182 38.167 16.9867 38.167 14.7953V9.35001H41.4043V14.1147Z" fill="white"/>
<path d="M43.6953 43.443C43.6953 42.4967 43.2139 42.0816 42.4668 42.0816C41.8027 42.0816 41.3213 42.5963 41.3213 43.3268V48.025H38.084V36.1217H41.3213V40.7535C41.9521 39.7408 42.915 39.193 43.8447 39.193C45.6377 39.193 46.9326 40.4713 46.9326 42.7623V48.025H43.6953V43.443Z" fill="white"/>
<path d="M15.1556 45.3355V48.025H14.0931C11.9681 48.025 10.7064 46.9127 10.7064 45.0035V42.0484H9.51105V39.525H10.7064V37.317H13.9437V39.525H15.1556V42.0484H13.9437V44.5553C13.9437 45.1031 14.1429 45.3355 14.6243 45.3355H15.1556Z" fill="white"/>
<path d="M16.7742 66.2967V78.2H13.5369V77.0213C12.9725 77.951 12.1258 78.4988 11.0799 78.4988C9.07111 78.4988 7.72638 76.6727 7.72638 73.9168C7.72638 71.1775 9.07111 69.368 11.0799 69.368C12.1258 69.368 12.9725 69.8992 13.5369 70.8289V66.2967H16.7742ZM10.9969 73.9168C10.9969 75.1121 11.4783 75.7928 12.2586 75.7928C13.0555 75.7928 13.5369 75.1121 13.5369 73.9168C13.5369 72.7547 13.0555 72.074 12.2586 72.074C11.4783 72.074 10.9969 72.7547 10.9969 73.9168Z" fill="#999999"/>
<path d="M37.9761 73.9168C37.9761 71.2107 39.6694 69.534 42.3589 69.534C45.0815 69.534 47.0405 71.4432 47.0405 74.1326V74.6971H41.313C41.4624 75.4939 41.8608 75.909 42.4917 75.909C43.0562 75.909 43.4048 75.6932 43.4878 75.2283H46.9243C46.6255 77.3699 45.0151 78.3328 42.4585 78.3328C39.7026 78.3328 37.9761 76.6395 37.9761 73.9168ZM42.3921 71.742C41.894 71.742 41.5454 72.0076 41.3628 72.6883H43.5708C43.5044 72.1072 43.0562 71.742 42.3921 71.742Z" fill="#999999"/>
<path d="M68.0847 69.7H71.4216L72.6999 75.3777L73.9118 69.7H77.2819L74.5261 78.2H70.8239L68.0847 69.7Z" fill="#999999"/>
</g>
<defs>
<clipPath id="clip0_5709_152">
<rect width="85" height="85" fill="white"/>
</clipPath>
</defs>
</svg>
